<svg version="1.1" viewBox="0 0 24 24" xmlns="http://www.w3.org/2000/svg">
	<defs>
		<style id="current-color-scheme" type="text/css">.ColorScheme-Text { color:#4d4d4d; }</style>
	</defs>
	<path d="m17.61 17.662c-1.4198 1.446-3.3935 2.338-5.6095 2.338-4.432 0-8-3.568-8-8s3.463-8 7.895-8c2.216 0 4.216 0.892 5.662 2.338-0.0103 0.00278-0.6033 0.71293-0.6027 0.70775-1.2653-1.2652-3.0153-2.0458-4.9543-2.0458-3.878 0-7 3.122-7 7s3.122 7 7 7c1.939 0 3.689-0.7805 4.9543-2.0457m-6.9543-7.9543v6l4-3z" fill="currentColor" class="ColorScheme-Text"/>
	<path d="m18.13 10.067v3.4669h-3.4669v1.7335h3.467l-1e-5 3.4669h1.7335v-3.4669h3.4669v-1.7335h-3.4669v-3.4669z" fill="#3daee9"/>
</svg>
