<svg version="1.1" viewBox="0 0 22 22" xmlns="http://www.w3.org/2000/svg">
	<path d="m18.983 13.66v3.3574c0 0.1399-0.0604 0.23528-0.18121 0.28614-0.04832 0.01243-0.08455 0.01864-0.10872 0.01864-0.07852 0-0.14799-0.02861-0.20839-0.08585l-1.0215-1.1108c-0.71883 0.909-1.802 1.629-3.0069 2.1599-1.2049 0.53142-2.2468 0.72234-3.6363 0.72234-1.3893 0-2.5907-0.14082-3.7958-0.67171-1.205-0.5309-2.1159-1.2013-2.8347-2.1108l-0.94471 1.0117c-0.054364 0.05723-0.12383 0.08584-0.20839 0.08584-0.024158 0-0.060399-0.0062-0.10872-0.01864-0.12085-0.05076-0.18127-0.14606-0.18127-0.28591v-3.3574c0-0.08903 0.027182-0.16217 0.081544-0.2194 0.054362-0.05723 0.12383-0.08585 0.20839-0.08585h3.1893c0.13288 0 0.22349 0.06361 0.27181 0.19081 0.048315 0.12079 0.027184 0.23207-0.063396 0.33385l-1.1103 1.1282c0.4047 0.57866 1.0791 1.1415 1.819 1.5389 0.73994 0.39742 1.8386 0.64232 2.7386 0.76953l0.07875-9.8441-1.9025 0.011077c-0.15704 9.181e-4 -0.29295-0.06041-0.40771-0.18125-0.11474-0.1212-0.17176-0.26442-0.17211-0.42964l-0.0013254-0.62398c-3.511e-4 -0.16533 0.057386-0.30839 0.17215-0.42917 0.11477-0.12084 0.25068-0.18148 0.40773-0.18125l1.8783 0.00268 0.020966-2.9339 1.7746 0.00962-0.0121 2.9365 1.88 0.00624c0.15705 5.208e-4 0.29296 0.060418 0.40773 0.18126 0.11477 0.12079 0.17215 0.26384 0.17215 0.42917v0.57907c0 0.16533-0.05738 0.30839-0.17215 0.42918-0.11477 0.12084-0.25068 0.18233-0.40773 0.18126l-1.8289-0.012461-0.01506 9.8628c0.89999-0.12721 2.2201-0.36587 2.9601-0.7633 0.73994-0.39742 1.2867-0.98517 1.6914-1.5638l-1.1103-1.1033c-0.0906-0.10178-0.11173-0.21306-0.06339-0.33384 0.04832-0.12721 0.13893-0.19081 0.27181-0.19081h3.1893c0.08456 0 0.15403 0.02861 0.20839 0.08585 0.05462 0.05698 0.08192 0.13 0.08192 0.21909z" fill="currentColor"/>
</svg>
